# xmcd
#
# Track frame offsets:
#	150
#	20306
#	31192
#	46261
#	64479
#	79711
#	92802
#	112074
#	122373
#	141297
#	158026
#	174608
#
# Disc length: 2485 seconds
# Revision: 0
# Processed by: cddbd v1.5.2PL0 Copyright (c) Steve Scherf et al.
# Submitted via: dBpowerAMP V12.0
#
DISCID=9809b30c
DTITLE=The Corzines - The Corzines
DYEAR=2013
DGENRE=Country
TTITLE0=Prisoner of the Highway
TTITLE1=Tellin' You Goodbye
TTITLE2=Picture Me There
TTITLE3=Too Old to Play Cowboy
TTITLE4=My Guarded Heart
TTITLE5=Hey Moon
TTITLE6=Waterbound
TTITLE7=Walk Out That Door
TTITLE8=Friend of the Devil
TTITLE9=Good Time Charlie's Got the Blues
TTITLE10=I'm Gonna Love You
TTITLE11=For Loving Me
EXTD=
EXTT0=
EXTT1=
EXTT2=
EXTT3=
EXTT4=
EXTT5=
EXTT6=
EXTT7=
EXTT8=
EXTT9=
EXTT10=
EXTT11=
PLAYORDER=
